<?xml version="1.0" encoding="utf-8"?>
<!-- Generator: Adobe Illustrator 17.0.0, SVG Export Plug-In . SVG Version: 6.00 Build 0)  -->
<!DOCTYPE svg PUBLIC "-//W3C//DTD SVG 1.1//EN" "http://www.w3.org/Graphics/SVG/1.1/DTD/svg11.dtd">
<svg version="1.1" xmlns="http://www.w3.org/2000/svg" xmlns:xlink="http://www.w3.org/1999/xlink" x="0px" y="0px"
	 width="3401.57px" height="1700.79px" viewBox="0 0 3401.57 1700.79" enable-background="new 0 0 3401.57 1700.79"
	 xml:space="preserve">
<g id="Layer_1">
	<path fill="#8AC53F" d="M1656.25,795.29l20.25,41c0,0,10.25,2.25,10.5,3.75s0-9.5,4.75-14l-15-30.75H1656.25z"/>
</g>
<g id="Layer_2">
	<path fill="#369845" d="M1689.75,844.79c0,0-7-37.75,60.75-47.25l-46,97l-14.955-31.25c0,0-9.295,6-19.295-5.5
		s-6.75-13.221-19.25-17.611C1651,840.179,1678.75,831.29,1689.75,844.79z"/>
</g>
<g id="Layer_3">
	<path fill="#FFFFFF" d="M1693.25,848.04c0,0-11.25-35.25,48.5-46.75c0,0-12.187,13.78-12.5,27.75c-0.313,13.97-12,34-33.5,26.25
		c0,0,4.25-17,11.5-24c0,0,12.5-12.861,15-13.555C1722.25,817.735,1708.25,822.54,1693.25,848.04z"/>
</g>
<g id="Layer_4">
	<path fill="#FFFFFF" d="M1692.408,854.04c-4.842-19.5-34.908-13.861-34.908-13.861s9.119,3.835,10.5,10.216
		c1.381,6.38,13.822,15.629,22,10.645l2.408,4l1.342-4c0,0-5.501-10.755-22.5-16.25c0,0,8.25,0,20.5,9.75L1692.408,854.04z"/>
</g>
</svg>
